<svg width="21" height="21" viewBox="0 0 21 21" fill="none" xmlns="http://www.w3.org/2000/svg">
<path d="M17.5 11.375H3.5C3.01875 11.375 2.625 11.7688 2.625 12.25V17.5C2.625 17.9812 3.01875 18.375 3.5 18.375H17.5C17.9812 18.375 18.375 17.9812 18.375 17.5V12.25C18.375 11.7688 17.9812 11.375 17.5 11.375ZM6.125 16.625C5.1625 16.625 4.375 15.8375 4.375 14.875C4.375 13.9125 5.1625 13.125 6.125 13.125C7.0875 13.125 7.875 13.9125 7.875 14.875C7.875 15.8375 7.0875 16.625 6.125 16.625ZM17.5 2.625H3.5C3.01875 2.625 2.625 3.01875 2.625 3.5V8.75C2.625 9.23125 3.01875 9.625 3.5 9.625H17.5C17.9812 9.625 18.375 9.23125 18.375 8.75V3.5C18.375 3.01875 17.9812 2.625 17.5 2.625ZM6.125 7.875C5.1625 7.875 4.375 7.0875 4.375 6.125C4.375 5.1625 5.1625 4.375 6.125 4.375C7.0875 4.375 7.875 5.1625 7.875 6.125C7.875 7.0875 7.0875 7.875 6.125 7.875Z" fill="white"/>
</svg>
