<svg width="1440" height="3059" viewBox="0 0 1440 3059" fill="none" xmlns="http://www.w3.org/2000/svg">
<rect width="1440" height="3059" fill="url(#paint0_linear)"/>
<mask id="mask0" mask-type="alpha" maskUnits="userSpaceOnUse" x="0" y="0" width="1440" height="3059">
<rect width="1440" height="3059" fill="url(#paint1_linear)"/>
</mask>
<g mask="url(#mask0)">
<g filter="url(#filter0_d)">
<path d="M156.911 1451.78L-17.7803 1977.33C-18.2374 1978.71 -19.2687 1979.82 -20.607 1980.38L-76.582 2003.63C-79.8747 2004.99 -83.5 2002.57 -83.5 1999.01V1262.51C-83.5 1258.3 -78.6113 1255.98 -75.3443 1258.64L155.322 1446.32C156.934 1447.63 157.566 1449.8 156.911 1451.78Z" fill="url(#paint2_linear)"/>
<path d="M156.911 1451.78L-17.7803 1977.33C-18.2374 1978.71 -19.2687 1979.82 -20.607 1980.38L-76.582 2003.63C-79.8747 2004.99 -83.5 2002.57 -83.5 1999.01V1262.51C-83.5 1258.3 -78.6113 1255.98 -75.3443 1258.64L155.322 1446.32C156.934 1447.63 157.566 1449.8 156.911 1451.78Z" stroke="white" stroke-opacity="0.04" stroke-width="10"/>
</g>
<g filter="url(#filter1_d)">
<path d="M201.716 2483.92L29.2093 3125.86C28.7673 3127.51 27.5185 3128.81 25.8955 3129.33L-51.4851 3153.93C-54.7096 3154.95 -58 3152.55 -58 3149.16V2251.44C-58 2247.08 -52.806 2244.81 -49.6045 2247.77L200.283 2478.95C201.646 2480.21 202.198 2482.12 201.716 2483.92Z" fill="url(#paint3_linear)"/>
<path d="M201.716 2483.92L29.2093 3125.86C28.7673 3127.51 27.5185 3128.81 25.8955 3129.33L-51.4851 3153.93C-54.7096 3154.95 -58 3152.55 -58 3149.16V2251.44C-58 2247.08 -52.806 2244.81 -49.6045 2247.77L200.283 2478.95C201.646 2480.21 202.198 2482.12 201.716 2483.92Z" stroke="white" stroke-opacity="0.04" stroke-width="10"/>
</g>
<path opacity="0.2" d="M992.047 1571.14L906.906 2160.19C906.654 2161.93 907.339 2163.68 908.708 2164.79L1456.23 2608.3C1459.52 2610.97 1464.43 2608.59 1464.38 2604.36L1451.08 1434.18C1451.04 1430.84 1447.8 1428.48 1444.61 1429.46L995.53 1567.07C993.68 1567.64 992.323 1569.22 992.047 1571.14Z" stroke="white" stroke-width="5"/>
<g filter="url(#filter2_d)">
<path d="M522.798 1042.25L898.819 942.081C900.206 941.712 901.684 941.956 902.878 942.751L1221.93 1155.29C1223.5 1156.34 1224.35 1158.19 1224.12 1160.07L1152.39 1735.34C1152.15 1737.27 1150.82 1738.88 1148.97 1739.48L720.049 1878.18C718.457 1878.69 716.712 1878.37 715.402 1877.33L373.067 1605.54C371.508 1604.3 370.832 1602.26 371.345 1600.33L519.254 1045.8C519.715 1044.07 521.067 1042.72 522.798 1042.25Z" fill="url(#paint4_linear)"/>
<path d="M522.798 1042.25L898.819 942.081C900.206 941.712 901.684 941.956 902.878 942.751L1221.93 1155.29C1223.5 1156.34 1224.35 1158.19 1224.12 1160.07L1152.39 1735.34C1152.15 1737.27 1150.82 1738.88 1148.97 1739.48L720.049 1878.18C718.457 1878.69 716.712 1878.37 715.402 1877.33L373.067 1605.54C371.508 1604.3 370.832 1602.26 371.345 1600.33L519.254 1045.8C519.715 1044.07 521.067 1042.72 522.798 1042.25Z" stroke="url(#paint5_linear)" stroke-width="11"/>
</g>
<g filter="url(#filter3_d)">
<path d="M978.128 2729.95L924.709 3153.87C924.333 3156.86 926.66 3159.5 929.67 3159.5H1504.85C1507.67 3159.5 1509.93 3157.17 1509.85 3154.35L1491.21 2534.08C1491.11 2530.63 1487.62 2528.32 1484.4 2529.58L981.271 2725.92C979.563 2726.59 978.357 2728.13 978.128 2729.95Z" fill="url(#paint6_linear)"/>
<path d="M978.128 2729.95L924.709 3153.87C924.333 3156.86 926.66 3159.5 929.67 3159.5H1504.85C1507.67 3159.5 1509.93 3157.17 1509.85 3154.35L1491.21 2534.08C1491.11 2530.63 1487.62 2528.32 1484.4 2529.58L981.271 2725.92C979.563 2726.59 978.357 2728.13 978.128 2729.95Z" stroke="url(#paint7_linear)" stroke-width="15"/>
</g>
<g filter="url(#filter4_d)">
<path d="M446.472 1771.79L198.556 1849.7C196.959 1850.2 195.72 1851.47 195.253 1853.07L78.8715 2254C78.3383 2255.83 78.8997 2257.81 80.3176 2259.1L281.783 2441.49C283.148 2442.73 285.082 2443.11 286.817 2442.5L557.849 2345.94C559.495 2345.36 560.715 2343.95 561.068 2342.24L645.879 1930.52C646.26 1928.67 645.567 1926.76 644.087 1925.59L451.077 1772.65C449.778 1771.62 448.053 1771.3 446.472 1771.79Z" fill="url(#paint8_linear)"/>
<path d="M446.472 1771.79L198.556 1849.7C196.959 1850.2 195.72 1851.47 195.253 1853.07L78.8715 2254C78.3383 2255.83 78.8997 2257.81 80.3176 2259.1L281.783 2441.49C283.148 2442.73 285.082 2443.11 286.817 2442.5L557.849 2345.94C559.495 2345.36 560.715 2343.95 561.068 2342.24L645.879 1930.52C646.26 1928.67 645.567 1926.76 644.087 1925.59L451.077 1772.65C449.778 1771.62 448.053 1771.3 446.472 1771.79Z" stroke="url(#paint9_linear)" stroke-opacity="0.6" stroke-width="7"/>
</g>
<g filter="url(#filter5_d)">
<path d="M584.214 2420.02L308.53 2520.58C306.951 2521.15 305.766 2522.48 305.378 2524.12L185.657 3028.73C185.25 3030.45 185.778 3032.25 187.046 3033.48L319.731 3161.79C320.846 3162.87 322.4 3163.37 323.935 3163.14L725.388 3104.03C727.54 3103.72 729.24 3102.04 729.593 3099.9L809.049 2617.24C809.33 2615.53 808.712 2613.81 807.416 2612.67L589.228 2420.96C587.854 2419.75 585.932 2419.39 584.214 2420.02Z" fill="url(#paint10_linear)"/>
<path d="M584.214 2420.02L308.53 2520.58C306.951 2521.15 305.766 2522.48 305.378 2524.12L185.657 3028.73C185.25 3030.45 185.778 3032.25 187.046 3033.48L319.731 3161.79C320.846 3162.87 322.4 3163.37 323.935 3163.14L725.388 3104.03C727.54 3103.72 729.24 3102.04 729.593 3099.9L809.049 2617.24C809.33 2615.53 808.712 2613.81 807.416 2612.67L589.228 2420.96C587.854 2419.75 585.932 2419.39 584.214 2420.02Z" stroke="white" stroke-opacity="0.04" stroke-width="10"/>
</g>
<g filter="url(#filter6_d)">
<path d="M1304.44 1689.67L1448.53 1787.98C1450.31 1789.19 1452.65 1789.13 1454.37 1787.84L1602.37 1676.11C1603.7 1675.1 1604.44 1673.5 1604.35 1671.84L1586.18 1350.19C1586.07 1348.25 1584.84 1346.54 1583.02 1345.83L1457.14 1296.15C1456.08 1295.73 1454.91 1295.68 1453.82 1296.02L1339.67 1331.51C1337.75 1332.11 1336.37 1333.8 1336.18 1335.81L1302.29 1685.05C1302.11 1686.87 1302.94 1688.64 1304.44 1689.67Z" fill="url(#paint11_linear)"/>
<path d="M1304.44 1689.67L1448.53 1787.98C1450.31 1789.19 1452.65 1789.13 1454.37 1787.84L1602.37 1676.11C1603.7 1675.1 1604.44 1673.5 1604.35 1671.84L1586.18 1350.19C1586.07 1348.25 1584.84 1346.54 1583.02 1345.83L1457.14 1296.15C1456.08 1295.73 1454.91 1295.68 1453.82 1296.02L1339.67 1331.51C1337.75 1332.11 1336.37 1333.8 1336.18 1335.81L1302.29 1685.05C1302.11 1686.87 1302.94 1688.64 1304.44 1689.67Z" stroke="url(#paint12_linear)" stroke-width="11"/>
</g>
<g filter="url(#filter7_d)">
<path d="M1250.58 1797.29L999.471 1879.53C997.653 1880.12 996.335 1881.7 996.074 1883.6L936.385 2317.21C936.146 2318.94 936.831 2320.67 938.191 2321.77L1180.76 2518.18C1182.14 2519.31 1184.03 2519.61 1185.7 2518.96L1454.33 2415.72C1456.24 2414.98 1457.51 2413.15 1457.54 2411.1L1462.47 1950.59C1462.49 1948.97 1461.72 1947.43 1460.4 1946.48L1255.06 1797.99C1253.77 1797.06 1252.1 1796.79 1250.58 1797.29Z" fill="url(#paint13_linear)"/>
<path d="M1250.58 1797.29L999.471 1879.53C997.653 1880.12 996.335 1881.7 996.074 1883.6L936.385 2317.21C936.146 2318.94 936.831 2320.67 938.191 2321.77L1180.76 2518.18C1182.14 2519.31 1184.03 2519.61 1185.7 2518.96L1454.33 2415.72C1456.24 2414.98 1457.51 2413.15 1457.54 2411.1L1462.47 1950.59C1462.49 1948.97 1461.72 1947.43 1460.4 1946.48L1255.06 1797.99C1253.77 1797.06 1252.1 1796.79 1250.58 1797.29Z" stroke="url(#paint14_linear)" stroke-width="7"/>
</g>
</g>
<defs>
<filter id="filter0_d" x="-94.5" y="1252.5" width="258.667" height="766.524" filterUnits="userSpaceOnUse" color-interpolation-filters="sRGB">
<feFlood flood-opacity="0" result="BackgroundImageFix"/>
<feColorMatrix in="SourceAlpha" type="matrix" values="0 0 0 0 0 0 0 0 0 0 0 0 0 0 0 0 0 0 127 0"/>
<feOffset dx="-2" dy="6"/>
<feGaussianBlur stdDeviation="2"/>
<feColorMatrix type="matrix" values="0 0 0 0 0 0 0 0 0 0 0 0 0 0 0 0 0 0 0.43 0"/>
<feBlend mode="normal" in2="BackgroundImageFix" result="effect1_dropShadow"/>
<feBlend mode="normal" in="SourceGraphic" in2="effect1_dropShadow" result="shape"/>
</filter>
<filter id="filter1_d" x="-69" y="2241.42" width="277.888" height="927.753" filterUnits="userSpaceOnUse" color-interpolation-filters="sRGB">
<feFlood flood-opacity="0" result="BackgroundImageFix"/>
<feColorMatrix in="SourceAlpha" type="matrix" values="0 0 0 0 0 0 0 0 0 0 0 0 0 0 0 0 0 0 127 0"/>
<feOffset dx="-2" dy="6"/>
<feGaussianBlur stdDeviation="2"/>
<feColorMatrix type="matrix" values="0 0 0 0 0 0 0 0 0 0 0 0 0 0 0 0 0 0 0.55 0"/>
<feBlend mode="normal" in2="BackgroundImageFix" result="effect1_dropShadow"/>
<feBlend mode="normal" in="SourceGraphic" in2="effect1_dropShadow" result="shape"/>
</filter>
<filter id="filter2_d" x="332.675" y="924.412" width="911.981" height="995.506" filterUnits="userSpaceOnUse" color-interpolation-filters="sRGB">
<feFlood flood-opacity="0" result="BackgroundImageFix"/>
<feColorMatrix in="SourceAlpha" type="matrix" values="0 0 0 0 0 0 0 0 0 0 0 0 0 0 0 0 0 0 127 0"/>
<feOffset dx="-9" dy="12"/>
<feGaussianBlur stdDeviation="12"/>
<feColorMatrix type="matrix" values="0 0 0 0 0 0 0 0 0 0 0 0 0 0 0 0 0 0 0.5 0"/>
<feBlend mode="normal" in2="BackgroundImageFix" result="effect1_dropShadow"/>
<feBlend mode="normal" in="SourceGraphic" in2="effect1_dropShadow" result="shape"/>
</filter>
<filter id="filter3_d" x="794.168" y="2449.72" width="808.18" height="853.276" filterUnits="userSpaceOnUse" color-interpolation-filters="sRGB">
<feFlood flood-opacity="0" result="BackgroundImageFix"/>
<feColorMatrix in="SourceAlpha" type="matrix" values="0 0 0 0 0 0 0 0 0 0 0 0 0 0 0 0 0 0 127 0"/>
<feOffset dx="-19" dy="32"/>
<feGaussianBlur stdDeviation="52"/>
<feColorMatrix type="matrix" values="0 0 0 0 0 0 0 0 0 0 0 0 0 0 0 0 0 0 0.8 0"/>
<feBlend mode="normal" in2="BackgroundImageFix" result="effect1_dropShadow"/>
<feBlend mode="normal" in="SourceGraphic" in2="effect1_dropShadow" result="shape"/>
</filter>
<filter id="filter4_d" x="63.1729" y="1766.06" width="586.309" height="690.222" filterUnits="userSpaceOnUse" color-interpolation-filters="sRGB">
<feFlood flood-opacity="0" result="BackgroundImageFix"/>
<feColorMatrix in="SourceAlpha" type="matrix" values="0 0 0 0 0 0 0 0 0 0 0 0 0 0 0 0 0 0 127 0"/>
<feOffset dx="-6" dy="4"/>
<feGaussianBlur stdDeviation="3"/>
<feColorMatrix type="matrix" values="0 0 0 0 0 0 0 0 0 0 0 0 0 0 0 0 0 0 0.45 0"/>
<feBlend mode="normal" in2="BackgroundImageFix" result="effect1_dropShadow"/>
<feBlend mode="normal" in="SourceGraphic" in2="effect1_dropShadow" result="shape"/>
</filter>
<filter id="filter5_d" x="173.521" y="2414.71" width="641.594" height="763.482" filterUnits="userSpaceOnUse" color-interpolation-filters="sRGB">
<feFlood flood-opacity="0" result="BackgroundImageFix"/>
<feColorMatrix in="SourceAlpha" type="matrix" values="0 0 0 0 0 0 0 0 0 0 0 0 0 0 0 0 0 0 127 0"/>
<feOffset dx="-3" dy="6"/>
<feGaussianBlur stdDeviation="2"/>
<feColorMatrix type="matrix" values="0 0 0 0 0 0 0 0 0 0 0 0 0 0 0 0 0 0 0.35 0"/>
<feBlend mode="normal" in2="BackgroundImageFix" result="effect1_dropShadow"/>
<feBlend mode="normal" in="SourceGraphic" in2="effect1_dropShadow" result="shape"/>
</filter>
<filter id="filter6_d" x="1092.76" y="1290.3" width="541.095" height="818.049" filterUnits="userSpaceOnUse" color-interpolation-filters="sRGB">
<feFlood flood-opacity="0" result="BackgroundImageFix"/>
<feColorMatrix in="SourceAlpha" type="matrix" values="0 0 0 0 0 0 0 0 0 0 0 0 0 0 0 0 0 0 127 0"/>
<feOffset dx="-90" dy="200"/>
<feGaussianBlur stdDeviation="57"/>
<feColorMatrix type="matrix" values="0 0 0 0 0 0 0 0 0 0 0 0 0 0 0 0 0 0 0.7 0"/>
<feBlend mode="normal" in2="BackgroundImageFix" result="effect1_dropShadow"/>
<feBlend mode="normal" in="SourceGraphic" in2="effect1_dropShadow" result="shape"/>
</filter>
<filter id="filter7_d" x="718.838" y="1731.54" width="801.135" height="997.252" filterUnits="userSpaceOnUse" color-interpolation-filters="sRGB">
<feFlood flood-opacity="0" result="BackgroundImageFix"/>
<feColorMatrix in="SourceAlpha" type="matrix" values="0 0 0 0 0 0 0 0 0 0 0 0 0 0 0 0 0 0 127 0"/>
<feOffset dx="-80" dy="72"/>
<feGaussianBlur stdDeviation="67"/>
<feColorMatrix type="matrix" values="0 0 0 0 0 0 0 0 0 0 0 0 0 0 0 0 0 0 0.6 0"/>
<feBlend mode="normal" in2="BackgroundImageFix" result="effect1_dropShadow"/>
<feBlend mode="normal" in="SourceGraphic" in2="effect1_dropShadow" result="shape"/>
</filter>
<linearGradient id="paint0_linear" x1="117" y1="-239.961" x2="1884.81" y2="2876.08" gradientUnits="userSpaceOnUse">
<stop stop-color="#1D1D1D"/>
<stop offset="0.506763" stop-color="#424242"/>
<stop offset="1" stop-color="#242424"/>
</linearGradient>
<linearGradient id="paint1_linear" x1="117" y1="-239.961" x2="1884.81" y2="2876.08" gradientUnits="userSpaceOnUse">
<stop stop-color="#1D1D1D"/>
<stop offset="0.506763" stop-color="#424242"/>
<stop offset="1" stop-color="#242424"/>
</linearGradient>
<linearGradient id="paint2_linear" x1="74.4708" y1="1252" x2="-331.535" y2="1786.06" gradientUnits="userSpaceOnUse">
<stop stop-color="#2D2D2D"/>
<stop offset="1" stop-color="#363636"/>
</linearGradient>
<linearGradient id="paint3_linear" x1="112.399" y1="2240" x2="-392.995" y2="2830.66" gradientUnits="userSpaceOnUse">
<stop stop-color="#313131"/>
<stop offset="1" stop-color="#222222"/>
</linearGradient>
<linearGradient id="paint4_linear" x1="797.5" y1="941.5" x2="797.5" y2="1879" gradientUnits="userSpaceOnUse">
<stop stop-color="#2C2C2C"/>
<stop offset="1" stop-color="#3D3D3D"/>
</linearGradient>
<linearGradient id="paint5_linear" x1="798" y1="906" x2="798" y2="1897.5" gradientUnits="userSpaceOnUse">
<stop stop-color="white"/>
<stop offset="0.0001" stop-color="white" stop-opacity="0"/>
<stop offset="1" stop-color="white" stop-opacity="0.1"/>
</linearGradient>
<linearGradient id="paint6_linear" x1="1217" y1="2527" x2="1217" y2="3159.5" gradientUnits="userSpaceOnUse">
<stop stop-color="#2C2C2C"/>
<stop offset="1" stop-color="#3D3D3D"/>
</linearGradient>
<linearGradient id="paint7_linear" x1="1373" y1="2461.5" x2="1217.34" y2="3171.98" gradientUnits="userSpaceOnUse">
<stop stop-color="white"/>
<stop offset="0.0001" stop-color="white" stop-opacity="0.05"/>
<stop offset="1" stop-color="white" stop-opacity="0.05"/>
</linearGradient>
<linearGradient id="paint8_linear" x1="478" y1="1820.5" x2="235" y2="2319.5" gradientUnits="userSpaceOnUse">
<stop stop-color="#3C3C3C"/>
<stop offset="1" stop-color="#323232"/>
</linearGradient>
<linearGradient id="paint9_linear" x1="362.583" y1="1745.53" x2="362.583" y2="2456.77" gradientUnits="userSpaceOnUse">
<stop stop-color="white"/>
<stop offset="0.0001" stop-color="white" stop-opacity="0"/>
<stop offset="1" stop-color="white" stop-opacity="0.1"/>
</linearGradient>
<linearGradient id="paint10_linear" x1="593.5" y1="2419" x2="371" y2="3186" gradientUnits="userSpaceOnUse">
<stop stop-color="#2F2F2F"/>
<stop offset="1" stop-color="#2B2B2B"/>
</linearGradient>
<linearGradient id="paint11_linear" x1="1378.75" y1="1295.5" x2="1378.75" y2="1790" gradientUnits="userSpaceOnUse">
<stop stop-color="#363636"/>
<stop offset="1" stop-color="#3F3F3F"/>
</linearGradient>
<linearGradient id="paint12_linear" x1="1378.84" y1="1276.77" x2="1378.84" y2="1799.76" gradientUnits="userSpaceOnUse">
<stop stop-color="white"/>
<stop offset="0.0001" stop-color="white" stop-opacity="0"/>
<stop offset="1" stop-color="white" stop-opacity="0.1"/>
</linearGradient>
<linearGradient id="paint13_linear" x1="1199.25" y1="1796.5" x2="1199.25" y2="2520" gradientUnits="userSpaceOnUse">
<stop stop-color="#3D3D3D"/>
<stop offset="0.458333" stop-color="#3B3B3B"/>
<stop offset="1" stop-color="#303030"/>
</linearGradient>
<linearGradient id="paint14_linear" x1="1199.56" y1="1769.1" x2="1199.56" y2="2534.28" gradientUnits="userSpaceOnUse">
<stop stop-color="white"/>
<stop offset="0.0001" stop-color="white" stop-opacity="0.07"/>
<stop offset="1" stop-color="white" stop-opacity="0.07"/>
</linearGradient>
</defs>
</svg>
