<svg width="15" height="14" viewBox="0 0 15 14" fill="none" xmlns="http://www.w3.org/2000/svg">
<path d="M7.98589 0C9.92425 0 11.5779 0.684664 12.9468 2.05399C14.3157 3.42332 15.0001 5.07199 15.0001 7C15.0001 8.92801 14.3157 10.5767 12.9468 11.946C11.5779 13.3153 9.92425 14 7.98589 14C6.04754 14 4.39392 13.3153 3.02502 11.946C1.65613 10.5767 0.97168 8.92801 0.97168 7C0.97168 5.07199 1.65613 3.42332 3.02502 2.05399C4.39392 0.684664 6.04754 0 7.98589 0ZM12.8318 4.20657C12.1309 2.97966 11.1234 2.1471 9.80926 1.70892C10.2254 2.47574 10.543 3.30829 10.762 4.20657H12.8318ZM7.96947 1.41315C7.37811 2.26761 6.94006 3.19875 6.65533 4.20657H9.31646C9.00983 3.19875 8.56083 2.26761 7.96947 1.41315ZM2.54865 8.41315H4.9141C4.84839 7.86542 4.81554 7.39437 4.81554 7C4.81554 6.60563 4.84839 6.13459 4.9141 5.58685H2.54865C2.43913 6.09077 2.38438 6.56182 2.38438 7C2.38438 7.43818 2.43913 7.90923 2.54865 8.41315ZM3.14001 9.79343C3.84088 11.0203 4.84839 11.8529 6.16253 12.2911C5.74638 11.5243 5.4288 10.6917 5.20978 9.79343H3.14001ZM5.20978 4.20657C5.4288 3.30829 5.74638 2.47574 6.16253 1.70892C4.84839 2.1471 3.84088 2.97966 3.14001 4.20657H5.20978ZM7.96947 12.5869C8.56083 11.7324 9.00983 10.8013 9.31646 9.79343H6.65533C6.94006 10.8013 7.37811 11.7324 7.96947 12.5869ZM9.61214 8.41315C9.69975 7.86542 9.74356 7.39437 9.74356 7C9.74356 6.60563 9.69975 6.13459 9.61214 5.58685H6.3268C6.26109 6.13459 6.22823 6.60563 6.22823 7C6.22823 7.39437 6.26109 7.86542 6.3268 8.41315H9.61214ZM9.80926 12.2911C11.1234 11.8529 12.1309 11.0203 12.8318 9.79343H10.762C10.543 10.6917 10.2254 11.5243 9.80926 12.2911ZM11.0248 8.41315H13.3903C13.5217 7.90923 13.5874 7.43818 13.5874 7C13.5874 6.56182 13.5217 6.09077 13.3903 5.58685H11.0248C11.0905 6.13459 11.1234 6.60563 11.1234 7C11.1234 7.39437 11.0905 7.86542 11.0248 8.41315Z" fill="white"/>
</svg>
