<svg width="14" height="14" viewBox="0 0 14 14" fill="none" xmlns="http://www.w3.org/2000/svg">
<path d="M13.9549 4.13217C13.9471 3.54434 13.8368 2.96235 13.6292 2.41224C13.4491 1.94823 13.174 1.52682 12.8215 1.17494C12.4691 0.823067 12.047 0.548459 11.5822 0.368666C11.0382 0.164819 10.4636 0.0545946 9.88272 0.0426877C9.13483 0.00931372 8.89771 0 6.99922 0C5.10073 0 4.8574 5.20442e-08 4.11495 0.0426877C3.53433 0.0546822 2.95996 0.164905 2.41626 0.368666C1.9514 0.548334 1.52923 0.822897 1.17675 1.17479C0.824268 1.52668 0.549247 1.94815 0.36928 2.41224C0.164684 2.95487 0.054516 3.52842 0.0435362 4.10811C0.0101066 4.85553 0 5.09225 0 6.98758C0 8.88291 -5.79232e-09 9.12507 0.0435362 9.86706C0.0551977 10.4476 0.164816 11.0204 0.36928 11.5645C0.549549 12.0284 0.824775 12.4497 1.17737 12.8015C1.52997 13.1532 1.95218 13.4277 2.41704 13.6073C2.95924 13.8193 3.53372 13.9374 4.11573 13.9565C4.86439 13.9899 5.10151 14 7 14C8.89849 14 9.14183 14 9.88427 13.9565C10.4651 13.9451 11.0398 13.8351 11.5837 13.6313C12.0484 13.4513 12.4704 13.1767 12.8228 12.8248C13.1753 12.473 13.4504 12.0517 13.6307 11.5878C13.8352 11.0445 13.9448 10.4717 13.9565 9.89034C13.9899 9.1437 14 8.90697 14 7.01087C13.9984 5.11553 13.9984 4.87493 13.9549 4.13217ZM6.99456 10.5718C5.009 10.5718 3.40049 8.96596 3.40049 6.9837C3.40049 5.00144 5.009 3.39561 6.99456 3.39561C7.94776 3.39561 8.86193 3.77364 9.53595 4.44654C10.21 5.11944 10.5886 6.03208 10.5886 6.9837C10.5886 7.93532 10.21 8.84797 9.53595 9.52087C8.86193 10.1938 7.94776 10.5718 6.99456 10.5718ZM10.7317 4.09957C10.2675 4.09957 9.8936 3.72547 9.8936 3.26289C9.8936 3.15307 9.91527 3.04432 9.95737 2.94286C9.99946 2.84139 10.0612 2.7492 10.139 2.67154C10.2167 2.59389 10.3091 2.53229 10.4107 2.49026C10.5124 2.44823 10.6213 2.4266 10.7313 2.4266C10.8413 2.4266 10.9502 2.44823 11.0519 2.49026C11.1535 2.53229 11.2458 2.59389 11.3236 2.67154C11.4014 2.7492 11.4631 2.84139 11.5052 2.94286C11.5473 3.04432 11.569 3.15307 11.569 3.26289C11.569 3.72547 11.1942 4.09957 10.7317 4.09957Z" fill="white"/>
<path d="M6.99456 9.31444C8.28394 9.31444 9.32919 8.27093 9.32919 6.9837C9.32919 5.69646 8.28394 4.65295 6.99456 4.65295C5.70518 4.65295 4.65993 5.69646 4.65993 6.9837C4.65993 8.27093 5.70518 9.31444 6.99456 9.31444Z" fill="white"/>
</svg>
