<svg width="21" height="21" viewBox="0 0 21 21" fill="none" xmlns="http://www.w3.org/2000/svg">
<path d="M7.875 9.625H6.125V11.375H7.875V9.625ZM11.375 9.625H9.625V11.375H11.375V9.625ZM14.875 9.625H13.125V11.375H14.875V9.625ZM16.625 3.5H15.75V1.75H14V3.5H7V1.75H5.25V3.5H4.375C3.40375 3.5 2.63375 4.2875 2.63375 5.25L2.625 17.5C2.625 18.4625 3.40375 19.25 4.375 19.25H16.625C17.5875 19.25 18.375 18.4625 18.375 17.5V5.25C18.375 4.2875 17.5875 3.5 16.625 3.5ZM16.625 17.5H4.375V7.875H16.625V17.5Z" fill="white"/>
</svg>
