<svg width="21" height="21" viewBox="0 0 21 21" fill="none" xmlns="http://www.w3.org/2000/svg">
<path d="M10.5 1.75C5.67 1.75 1.75 5.67 1.75 10.5C1.75 15.33 5.67 19.25 10.5 19.25C15.33 19.25 19.25 15.33 19.25 10.5C19.25 5.67 15.33 1.75 10.5 1.75ZM7 15.3125C5.7925 15.3125 4.8125 14.3325 4.8125 13.125C4.8125 11.9175 5.7925 10.9375 7 10.9375C8.2075 10.9375 9.1875 11.9175 9.1875 13.125C9.1875 14.3325 8.2075 15.3125 7 15.3125ZM8.3125 7C8.3125 5.7925 9.2925 4.8125 10.5 4.8125C11.7075 4.8125 12.6875 5.7925 12.6875 7C12.6875 8.2075 11.7075 9.1875 10.5 9.1875C9.2925 9.1875 8.3125 8.2075 8.3125 7ZM14 15.3125C12.7925 15.3125 11.8125 14.3325 11.8125 13.125C11.8125 11.9175 12.7925 10.9375 14 10.9375C15.2075 10.9375 16.1875 11.9175 16.1875 13.125C16.1875 14.3325 15.2075 15.3125 14 15.3125Z" fill="white"/>
</svg>
