<svg width="21" height="21" viewBox="0 0 21 21" fill="none" xmlns="http://www.w3.org/2000/svg">
<path fill-rule="evenodd" clip-rule="evenodd" d="M14.5859 11.4888C15.7847 12.3025 16.6247 13.405 16.6247 14.875V17.5H20.1247V14.875C20.1247 12.9675 17.0009 11.8388 14.5859 11.4888Z" fill="white"/>
<path d="M7.875 10.5C9.808 10.5 11.375 8.933 11.375 7C11.375 5.067 9.808 3.5 7.875 3.5C5.942 3.5 4.375 5.067 4.375 7C4.375 8.933 5.942 10.5 7.875 10.5Z" fill="white"/>
<path fill-rule="evenodd" clip-rule="evenodd" d="M13.1247 10.5C15.0584 10.5 16.6247 8.93375 16.6247 7C16.6247 5.06625 15.0584 3.5 13.1247 3.5C12.7134 3.5 12.3284 3.5875 11.9609 3.71C12.6872 4.61125 13.1247 5.7575 13.1247 7C13.1247 8.2425 12.6872 9.38875 11.9609 10.29C12.3284 10.4125 12.7134 10.5 13.1247 10.5Z" fill="white"/>
<path fill-rule="evenodd" clip-rule="evenodd" d="M7.875 11.375C5.53875 11.375 0.875 12.5475 0.875 14.875V17.5H14.875V14.875C14.875 12.5475 10.2113 11.375 7.875 11.375Z" fill="white"/>
</svg>
