<svg width="16" height="16" viewBox="0 0 16 16" fill="none" xmlns="http://www.w3.org/2000/svg">
<path d="M15.9239 6.32153C15.9996 6.1318 16.0194 5.92303 15.9808 5.72163C15.9421 5.52023 15.8468 5.33525 15.7069 5.19009L10.707 0L9.29298 1.46776L12.5859 4.88595H0.000115852V6.96198H14.9999C15.1977 6.96203 15.391 6.90122 15.5555 6.78722C15.7199 6.67322 15.8481 6.51116 15.9239 6.32153V6.32153ZM0.076115 9.67847C0.000411259 9.8682 -0.0193797 10.077 0.0192468 10.2784C0.0578732 10.4798 0.153181 10.6648 0.293112 10.8099L5.29304 16L6.70702 14.5322L3.41407 11.1141H15.9999V9.03802H1.0001C0.802309 9.03783 0.608913 9.09859 0.444422 9.21261C0.279931 9.32662 0.151747 9.48876 0.076115 9.67847V9.67847Z" fill="white"/>
</svg>
