<svg width="21" height="21" viewBox="0 0 21 21" fill="none" xmlns="http://www.w3.org/2000/svg">
<path d="M17.9375 9.625H16.625V6.125C16.625 5.1625 15.8375 4.375 14.875 4.375H11.375V3.0625C11.375 1.855 10.395 0.875 9.1875 0.875C7.98 0.875 7 1.855 7 3.0625V4.375H3.5C2.5375 4.375 1.75875 5.1625 1.75875 6.125V9.45H3.0625C4.36625 9.45 5.425 10.5088 5.425 11.8125C5.425 13.1163 4.36625 14.175 3.0625 14.175H1.75V17.5C1.75 18.4625 2.5375 19.25 3.5 19.25H6.825V17.9375C6.825 16.6338 7.88375 15.575 9.1875 15.575C10.4912 15.575 11.55 16.6338 11.55 17.9375V19.25H14.875C15.8375 19.25 16.625 18.4625 16.625 17.5V14H17.9375C19.145 14 20.125 13.02 20.125 11.8125C20.125 10.605 19.145 9.625 17.9375 9.625Z" fill="white"/>
</svg>
