<svg width="14" height="15" viewBox="0 0 14 15" fill="none" xmlns="http://www.w3.org/2000/svg">
<path d="M5.18528 4.2486C3.53566 5.95931 3.89563 8.7983 5.78526 10.0559C5.84752 10.0974 5.93035 10.0892 5.98383 10.0368C6.38164 9.6472 6.71818 9.26983 7.01286 8.78988C7.05794 8.71645 7.0299 8.62117 6.95426 8.5801C6.66604 8.42359 6.37924 8.13012 6.21778 7.82012L6.21759 7.82023C6.02418 7.43422 5.95834 7.00152 6.06073 6.55464C6.06084 6.55467 6.06095 6.55469 6.06106 6.55469C6.17888 5.98257 6.79168 5.45036 7.25972 4.95816C7.25873 4.95783 7.25778 4.95747 7.25679 4.95714L9.0104 3.16321C9.70924 2.44831 10.8587 2.44242 11.5648 3.15013C12.2781 3.85056 12.2898 5.00853 11.591 5.7234L10.5289 6.81819C10.4797 6.86886 10.4637 6.94279 10.4868 7.00961C10.7313 7.72045 10.7915 8.72276 10.6276 9.48002C10.623 9.50122 10.6491 9.51509 10.6642 9.4996L12.9249 7.18695C14.369 5.70961 14.3568 3.30428 12.8976 1.8418C11.4086 0.349289 8.98441 0.36171 7.51063 1.86935L5.19434 4.2389C5.19127 4.24213 5.18837 4.24542 5.18528 4.2486Z" fill="white"/>
<path d="M9.41152 10.3814C9.41149 10.3815 9.41143 10.3815 9.41141 10.3816C9.41286 10.381 9.4142 10.3804 9.41565 10.3798C9.87701 9.53424 9.96783 8.56445 9.75161 7.61906L9.75062 7.62007L9.74956 7.61961C9.54425 6.77759 8.9809 5.94147 8.21581 5.42667C8.14999 5.38239 8.04486 5.38752 7.98323 5.43748C7.59568 5.75157 7.21633 6.15433 6.96602 6.6683C6.92671 6.74899 6.95615 6.84592 7.03362 6.891C7.32411 7.06004 7.58646 7.30752 7.76211 7.63609L7.76238 7.6359C7.89927 7.868 8.03417 8.30841 7.94679 8.78161C7.94674 8.78161 7.94665 8.78161 7.9466 8.78161C7.86508 9.40899 7.23299 9.98446 6.73051 10.503L6.73076 10.5033C6.34827 10.8953 5.37595 11.8888 4.98662 12.2875C4.28781 13.0024 3.13251 13.0142 2.41928 12.3137C1.70605 11.6133 1.69426 10.4554 2.39307 9.74048L3.4584 8.6424C3.50668 8.59263 3.5231 8.5203 3.50162 8.4543C3.26507 7.72685 3.20027 6.74713 3.34958 5.99072C3.35373 5.96963 3.32786 5.95617 3.31284 5.97152L1.08619 8.24937C-0.372765 9.74188 -0.3604 12.1719 1.11371 13.6494C2.6027 15.1116 5.0146 15.0869 6.4735 13.5945C6.98033 13.0263 9.14988 11.0129 9.41152 10.3814Z" fill="white"/>
</svg>
