<svg width="16" height="16" viewBox="0 0 16 16" fill="none" xmlns="http://www.w3.org/2000/svg">
<path d="M14.9541 15L11.1294 11.1818M12.7849 6.91182C12.7849 8.08107 12.4393 9.22406 11.7918 10.1962C11.1443 11.1684 10.2241 11.9262 9.14737 12.3736C8.07067 12.8211 6.8859 12.9382 5.74288 12.71C4.59986 12.4819 3.54993 11.9189 2.72586 11.0921C1.90178 10.2653 1.34059 9.21194 1.11322 8.06516C0.885863 6.91838 1.00255 5.72971 1.44854 4.64946C1.89452 3.56922 2.64977 2.64592 3.61878 1.99632C4.58778 1.34672 5.72702 1 6.89244 1C7.66624 1 8.43247 1.15291 9.14737 1.45001C9.86228 1.74711 10.5119 2.18257 11.059 2.73153C11.6062 3.28049 12.0402 3.93221 12.3363 4.64946C12.6325 5.36672 12.7849 6.13547 12.7849 6.91182Z" stroke="white" stroke-width="1.3" stroke-linecap="round"/>
</svg>
