<svg width="21" height="21" viewBox="0 0 21 21" fill="none" xmlns="http://www.w3.org/2000/svg">
<path d="M2.21338 17.1937L3.38588 17.6837V9.7825L1.25963 14.91C0.900879 15.8025 1.32963 16.8263 2.21338 17.1937ZM19.2759 13.9563L14.9359 3.4825C14.6646 2.82625 14.0259 2.42375 13.3521 2.40625C13.1246 2.40625 12.8884 2.44125 12.6609 2.5375L6.21213 5.20625C5.55588 5.4775 5.15338 6.1075 5.13588 6.78125C5.12713 7.0175 5.17088 7.25375 5.26713 7.48125L9.60713 17.955C9.87838 18.62 10.5259 19.0225 11.2084 19.0312C11.4359 19.0312 11.6634 18.9875 11.8821 18.9L18.3221 16.2312C19.2146 15.8637 19.6434 14.84 19.2759 13.9563ZM6.89463 7.65625C6.41338 7.65625 6.01963 7.2625 6.01963 6.78125C6.01963 6.3 6.41338 5.90625 6.89463 5.90625C7.37588 5.90625 7.76963 6.3 7.76963 6.78125C7.76963 7.2625 7.37588 7.65625 6.89463 7.65625ZM5.14463 17.2812C5.14463 18.2437 5.93213 19.0312 6.89463 19.0312H8.16338L5.14463 11.7337V17.2812Z" fill="white"/>
</svg>
