<svg width="15" height="15" viewBox="0 0 15 15" fill="none" xmlns="http://www.w3.org/2000/svg">
<path d="M11.5 4.53125C12.6218 4.53125 13.5312 3.62182 13.5312 2.5C13.5312 1.37817 12.6218 0.46875 11.5 0.46875C10.3782 0.46875 9.46875 1.37817 9.46875 2.5C9.46875 3.62182 10.3782 4.53125 11.5 4.53125Z" fill="white"/>
<path d="M11.501 4.99999C10.1222 4.99999 9.00098 3.87875 9.00098 2.5C9.00098 1.12125 10.1222 0 11.501 0C12.8797 0 14.001 1.12125 14.001 2.5C14.001 3.87875 12.8797 4.99999 11.501 4.99999ZM11.501 0.937499C10.6391 0.937499 9.93848 1.63875 9.93848 2.5C9.93848 3.36125 10.6391 4.06249 11.501 4.06249C12.3628 4.06249 13.0635 3.36125 13.0635 2.5C13.0635 1.63875 12.3628 0.937499 11.501 0.937499Z" fill="white"/>
<path d="M11.5 14.5312C12.6218 14.5312 13.5312 13.6218 13.5312 12.5C13.5312 11.3782 12.6218 10.4688 11.5 10.4688C10.3782 10.4688 9.46875 11.3782 9.46875 12.5C9.46875 13.6218 10.3782 14.5312 11.5 14.5312Z" fill="white"/>
<path d="M11.501 15C10.1222 15 9.00098 13.8787 9.00098 12.5C9.00098 11.1212 10.1222 10 11.501 10C12.8797 10 14.001 11.1212 14.001 12.5C14.001 13.8787 12.8797 15 11.501 15ZM11.501 10.9375C10.6391 10.9375 9.93848 11.6387 9.93848 12.5C9.93848 13.3612 10.6391 14.0625 11.501 14.0625C12.3628 14.0625 13.0635 13.3612 13.0635 12.5C13.0635 11.6387 12.3628 10.9375 11.501 10.9375Z" fill="white"/>
<path d="M2.74902 9.53124C3.87085 9.53124 4.78027 8.62182 4.78027 7.5C4.78027 6.37817 3.87085 5.46875 2.74902 5.46875C1.62719 5.46875 0.717773 6.37817 0.717773 7.5C0.717773 8.62182 1.62719 9.53124 2.74902 9.53124Z" fill="white"/>
<path d="M2.75 9.99999C1.37125 9.99999 0.25 8.87874 0.25 7.5C0.25 6.12125 1.37125 5 2.75 5C4.12875 5 5.24999 6.12125 5.24999 7.5C5.24999 8.87874 4.12875 9.99999 2.75 9.99999ZM2.75 5.9375C1.88812 5.9375 1.1875 6.63875 1.1875 7.5C1.1875 8.36124 1.88812 9.06249 2.75 9.06249C3.61187 9.06249 4.31249 8.36124 4.31249 7.5C4.31249 6.63875 3.61187 5.9375 2.75 5.9375Z" fill="white"/>
<path d="M4.22614 7.19958C4.00865 7.19958 3.7974 7.08646 3.6824 6.88396C3.51177 6.58458 3.61677 6.20271 3.91615 6.03146L9.71551 2.72521C10.0149 2.55334 10.3968 2.65834 10.568 2.95896C10.7386 3.25834 10.6336 3.64021 10.3343 3.81146L4.53489 7.11771C4.43739 7.17333 4.33114 7.19958 4.22614 7.19958Z" fill="white"/>
<path d="M10.0243 12.3567C9.91926 12.3567 9.81301 12.3304 9.71551 12.2748L3.91615 8.96855C3.61677 8.79793 3.51177 8.41605 3.6824 8.11605C3.8524 7.81605 4.23489 7.71043 4.53489 7.8823L10.3343 11.1885C10.6336 11.3592 10.7386 11.741 10.568 12.041C10.4524 12.2435 10.2411 12.3567 10.0243 12.3567Z" fill="white"/>
</svg>
