<svg width="13" height="15" viewBox="0 0 13 15" fill="none" xmlns="http://www.w3.org/2000/svg">
<path d="M10.6351 4.72911C11.6956 4.72911 12.5553 3.88033 12.5553 2.8333C12.5553 1.78628 11.6956 0.9375 10.6351 0.9375C9.57457 0.9375 8.71484 1.78628 8.71484 2.8333C8.71484 3.88033 9.57457 4.72911 10.6351 4.72911Z" fill="white"/>
<path d="M10.6368 5.16659C9.33341 5.16659 8.27344 4.12011 8.27344 2.8333C8.27344 1.54648 9.33341 0.5 10.6368 0.5C11.9402 0.5 13.0002 1.54648 13.0002 2.8333C13.0002 4.12011 11.9402 5.16659 10.6368 5.16659ZM10.6368 1.37499C9.82204 1.37499 9.15971 2.02948 9.15971 2.8333C9.15971 3.63712 9.82204 4.29161 10.6368 4.29161C11.4516 4.29161 12.1139 3.63712 12.1139 2.8333C12.1139 2.02948 11.4516 1.37499 10.6368 1.37499Z" fill="white"/>
<path d="M10.6351 14.0626C11.6956 14.0626 12.5553 13.2138 12.5553 12.1668C12.5553 11.1198 11.6956 10.271 10.6351 10.271C9.57457 10.271 8.71484 11.1198 8.71484 12.1668C8.71484 13.2138 9.57457 14.0626 10.6351 14.0626Z" fill="white"/>
<path d="M10.6368 14.5001C9.33341 14.5001 8.27344 13.4536 8.27344 12.1668C8.27344 10.88 9.33341 9.8335 10.6368 9.8335C11.9402 9.8335 13.0002 10.88 13.0002 12.1668C13.0002 13.4536 11.9402 14.5001 10.6368 14.5001ZM10.6368 10.7085C9.82204 10.7085 9.15971 11.363 9.15971 12.1668C9.15971 12.9706 9.82204 13.6251 10.6368 13.6251C11.4516 13.6251 12.1139 12.9706 12.1139 12.1668C12.1139 11.363 11.4516 10.7085 10.6368 10.7085Z" fill="white"/>
<path d="M2.36165 9.39561C3.42218 9.39561 4.2819 8.54683 4.2819 7.49981C4.2819 6.45278 3.42218 5.604 2.36165 5.604C1.30113 5.604 0.441406 6.45278 0.441406 7.49981C0.441406 8.54683 1.30113 9.39561 2.36165 9.39561Z" fill="white"/>
<path d="M2.36338 9.83309C1.05998 9.83309 0 8.78661 0 7.4998C0 6.21299 1.05998 5.1665 2.36338 5.1665C3.66679 5.1665 4.72677 6.21299 4.72677 7.4998C4.72677 8.78661 3.66679 9.83309 2.36338 9.83309ZM2.36338 6.04149C1.54861 6.04149 0.886269 6.69598 0.886269 7.4998C0.886269 8.30362 1.54861 8.95811 2.36338 8.95811C3.17816 8.95811 3.8405 8.30362 3.8405 7.4998C3.8405 6.69598 3.17816 6.04149 2.36338 6.04149Z" fill="white"/>
<path d="M3.75934 7.21994C3.55373 7.21994 3.35402 7.11435 3.24531 6.92536C3.08401 6.64595 3.18327 6.28953 3.46628 6.1297L8.94874 3.04392C9.23176 2.88351 9.59276 2.9815 9.75465 3.26208C9.91596 3.5415 9.81669 3.89791 9.53368 4.05774L4.05122 7.14352C3.95905 7.19544 3.85861 7.21994 3.75934 7.21994Z" fill="white"/>
<path d="M9.24062 12.0323C9.14136 12.0323 9.04091 12.0078 8.94874 11.9559L3.46628 8.87011C3.18327 8.71086 3.08401 8.35445 3.24531 8.07446C3.40602 7.79446 3.76762 7.69588 4.05122 7.85629L9.53368 10.9421C9.81669 11.1013 9.91596 11.4577 9.75465 11.7377C9.64535 11.9267 9.44564 12.0323 9.24062 12.0323V12.0323Z" fill="white"/>
</svg>
