<svg width="17" height="14" viewBox="0 0 17 14" fill="none" xmlns="http://www.w3.org/2000/svg">
<path d="M0 12.1553C1.45296 13.087 3.17873 13.6304 5.03294 13.6304C11.0722 13.6304 14.3746 8.62756 14.3746 4.28871C14.3746 4.14651 14.3713 4.00487 14.3651 3.86399C15.0066 3.40111 15.5633 2.82285 16.0034 2.16442C15.4146 2.42556 14.7819 2.60216 14.1177 2.68151C14.7957 2.27508 15.3162 1.63179 15.5613 0.865051C14.9269 1.24121 14.2242 1.51459 13.4764 1.66172C12.8775 1.02361 12.0242 0.625 11.0798 0.625C9.26672 0.625 7.79647 2.09503 7.79647 3.90814C7.79647 4.16546 7.82566 4.41603 7.88171 4.65644C5.15299 4.51936 2.73369 3.21237 1.11439 1.22581C0.831717 1.71084 0.669808 2.27477 0.669808 2.87656C0.669808 4.01554 1.24928 5.02055 2.13033 5.60933C1.59206 5.59226 1.0858 5.44446 0.643235 5.19862C0.642934 5.21239 0.642934 5.2261 0.642934 5.23998C0.642934 6.83072 1.77475 8.15763 3.27668 8.45932C3.00118 8.53424 2.71108 8.57459 2.41164 8.57459C2.20009 8.57459 1.99438 8.55395 1.79381 8.51553C2.21167 9.81992 3.42427 10.7693 4.86102 10.7956C3.73728 11.6763 2.32161 12.2012 0.783352 12.2012C0.518155 12.2013 0.256868 12.1858 0 12.1553Z" fill="white"/>
</svg>
