<svg width="16" height="16" viewBox="0 0 16 16" fill="none" xmlns="http://www.w3.org/2000/svg">
<path d="M11.0527 9.28585C10.9249 9.28585 10.8022 9.33665 10.7118 9.42707C10.6214 9.51749 10.5706 9.64012 10.5706 9.768C10.5706 9.89587 10.6214 10.0185 10.7118 10.1089C10.8022 10.1993 10.9249 10.2501 11.0527 10.2501H12.6599C12.7878 10.2501 12.9104 10.1993 13.0008 10.1089C13.0912 10.0185 13.142 9.89587 13.142 9.768C13.142 9.64012 13.0912 9.51749 13.0008 9.42707C12.9104 9.33665 12.7878 9.28585 12.6599 9.28585H11.0527ZM0.927735 2.69657C0.927735 2.2277 1.11399 1.77804 1.44553 1.4465C1.77707 1.11497 2.22673 0.928711 2.69559 0.928711H11.3742C11.843 0.928711 12.2927 1.11497 12.6242 1.4465C12.9558 1.77804 13.142 2.2277 13.142 2.69657V3.50528C13.7522 3.54605 14.3242 3.81723 14.7419 4.26388C15.1597 4.71054 15.3921 5.29928 15.392 5.91085V12.6609C15.392 13.3002 15.138 13.9134 14.6859 14.3655C14.2338 14.8176 13.6207 15.0716 12.9813 15.0716H3.34102C2.70166 15.0716 2.08849 14.8176 1.63639 14.3655C1.18429 13.9134 0.930307 13.3002 0.930307 12.6609V5.91085H0.927735V2.85728H0.934807C0.930043 2.80384 0.927683 2.75022 0.927735 2.69657ZM12.9813 4.46443H1.89459V12.6609C1.89459 13.0445 2.04698 13.4124 2.31824 13.6836C2.5895 13.9549 2.9574 14.1073 3.34102 14.1073H12.9813C13.3649 14.1073 13.7328 13.9549 14.0041 13.6836C14.2753 13.4124 14.4277 13.0445 14.4277 12.6609V5.91085C14.4277 5.52724 14.2753 5.15933 14.0041 4.88807C13.7328 4.61682 13.3649 4.46443 12.9813 4.46443ZM12.1777 2.69657C12.1777 2.253 11.8177 1.893 11.3742 1.893H2.69559C2.48247 1.893 2.27808 1.97766 2.12738 2.12836C1.97668 2.27906 1.89202 2.48345 1.89202 2.69657C1.89202 2.90969 1.97668 3.11408 2.12738 3.26478C2.27808 3.41548 2.48247 3.50014 2.69559 3.50014H12.1777V2.69657Z" fill="white"/>
</svg>
